<?xml version="1.0" standalone="no"?>
<!DOCTYPE svg PUBLIC "-//W3C//DTD SVG 20010904//EN"
 "http://www.w3.org/TR/2001/REC-SVG-20010904/DTD/svg10.dtd">
<svg version="1.0" xmlns="http://www.w3.org/2000/svg"
 width="1024.000000pt" height="1024.000000pt" viewBox="0 0 1024.000000 1024.000000"
 preserveAspectRatio="xMidYMid meet">

<g transform="translate(0.000000,1024.000000) scale(0.100000,-0.100000)"
fill="#000000" stroke="none">
<path d="M4934 8456 c-18 -14 -19 -28 -17 -348 4 -548 -7 -1099 -22 -1090 -41
23 -281 241 -278 252 2 7 -234 226 -291 270 -18 13 -19 13 -12 0 5 -9 2 -9 -7
2 -21 27 -63 40 -76 24 -6 -8 -8 -21 -5 -30 7 -18 401 -384 577 -535 103 -89
122 -113 95 -124 -10 -4 -10 -7 0 -14 7 -6 -38 -14 -120 -21 -73 -6 -178 -21
-232 -33 -105 -22 -324 -89 -391 -119 -22 -10 -69 -30 -105 -45 -255 -106
-598 -354 -796 -575 l-108 -119 -405 -3 -406 -3 -53 -28 c-64 -34 -124 -94
-150 -150 -54 -116 -52 -107 -53 -294 -1 -98 -4 -226 -8 -285 l-6 -108 -54 48
c-40 35 -54 54 -54 75 0 14 -2 25 -6 23 -3 -2 -6 100 -6 227 0 196 -2 231 -15
234 -12 4 -13 3 -1 -5 8 -6 11 -17 7 -28 -5 -12 -10 -15 -14 -7 -4 6 -7 -69
-8 -167 -1 -97 -4 -189 -8 -204 l-7 -27 -26 21 c-14 11 -30 20 -35 20 -9 0
-38 25 -147 126 -203 187 -262 235 -284 232 -17 -2 -22 -10 -22 -32 0 -25 16
-44 100 -119 107 -97 133 -125 112 -124 -6 0 -98 -1 -203 -1 -179 -2 -192 -3
-197 -21 -9 -34 29 -40 230 -34 104 3 205 3 225 -1 26 -5 71 -38 179 -135 192
-172 226 -208 234 -253 6 -31 4 -37 -14 -43 -11 -3 -24 -4 -28 -2 -5 2 -114 0
-243 -5 -129 -4 -271 -9 -315 -11 l-80 -2 0 -30 0 -30 130 -6 c72 -4 228 -7
348 -8 143 -1 216 -4 212 -11 -4 -6 -96 -11 -238 -12 -193 -1 -214 -3 -127 -8
101 -7 200 -27 140 -29 -14 0 -31 3 -39 8 -17 11 -43 3 -35 -10 3 -5 0 -9 -5
-9 -6 0 -11 -6 -11 -14 0 -8 -12 -17 -26 -20 -17 -5 -24 -12 -20 -21 3 -9 0
-12 -8 -9 -8 3 -17 1 -21 -5 -3 -6 -26 -11 -51 -11 -27 0 -43 -4 -39 -10 14
-23 -129 53 -178 95 -21 18 -47 35 -57 38 -16 4 -13 -2 12 -34 72 -90 239
-199 373 -244 83 -28 237 -48 295 -39 l40 7 0 -402 c0 -220 -2 -401 -5 -401
-3 0 -29 18 -58 40 -147 111 -338 150 -470 96 l-58 -24 -74 34 c-95 44 -155
53 -191 29 -51 -33 -104 -188 -104 -304 l0 -59 -54 -40 c-73 -55 -123 -119
-146 -186 -11 -30 -20 -61 -20 -67 0 -7 -18 -29 -40 -49 l-40 -37 0 -176 0
-175 31 -26 c17 -14 41 -26 53 -26 46 0 54 -18 76 -170 11 -80 25 -163 30
-185 15 -62 13 -70 -25 -84 -43 -15 -50 -37 -42 -140 13 -159 83 -308 200
-423 l79 -78 -44 0 c-76 0 -179 -13 -171 -21 4 -4 51 -12 103 -18 52 -6 115
-18 140 -27 38 -14 119 -18 520 -26 261 -5 489 -7 506 -3 18 3 49 17 70 31
l37 26 67 -31 c78 -36 124 -39 281 -15 57 8 203 19 324 24 147 6 240 14 280
25 84 23 1047 36 2401 33 906 -3 1043 -5 1059 -18 10 -8 75 -25 144 -38 121
-22 160 -23 926 -33 899 -12 1709 -6 1731 12 21 17 17 47 -8 63 -18 11 -69 14
-232 15 -115 0 -210 2 -212 4 -3 2 5 25 16 50 20 45 21 61 18 579 -3 516 -4
534 -23 568 -12 19 -40 48 -64 65 -41 29 -48 30 -162 34 -68 2 -119 7 -119 13
0 5 19 35 43 66 63 84 106 158 138 240 33 82 36 114 13 136 -22 22 -25 20 -19
-11 l5 -28 -10 26 c-6 15 -19 29 -29 32 -16 4 -17 1 -8 -23 9 -23 5 -37 -27
-95 -45 -79 -118 -188 -155 -229 -14 -15 -55 -50 -90 -77 l-64 -49 -78 0 c-44
0 -79 3 -79 6 0 3 32 40 71 82 77 82 142 203 174 320 24 92 53 275 45 287 -4
6 -10 52 -14 104 -4 52 -12 103 -17 113 -16 30 -55 39 -189 45 -279 13 -494
-43 -648 -168 -33 -26 -62 -45 -66 -42 -11 11 -7 1411 4 1418 16 10 98 -53
135 -103 19 -26 45 -72 57 -102 22 -53 23 -67 25 -440 2 -212 5 -395 8 -407 8
-35 60 -57 140 -57 90 -1 155 22 227 79 46 36 64 59 91 117 19 40 40 106 47
145 12 67 12 75 -5 93 -43 47 -77 15 -86 -80 -10 -111 -67 -198 -162 -246 -39
-20 -60 -24 -110 -22 l-62 3 -5 390 c-6 420 -8 434 -63 527 -36 61 -117 136
-184 173 l-58 31 -3 77 -3 77 50 0 c339 0 660 197 835 513 96 174 179 554 147
675 -16 58 -28 59 -29 4 -5 -147 -99 -446 -169 -542 -51 -69 -34 -66 -369 -69
-354 -3 -337 -12 -197 104 47 39 133 110 192 158 58 49 161 133 228 188 67 54
124 103 128 109 3 6 3 19 0 30 -10 31 -47 24 -96 -18 -24 -21 -75 -63 -114
-94 -190 -151 -361 -291 -443 -360 -50 -43 -92 -78 -95 -78 -7 0 10 155 44
410 12 92 11 107 -7 114 -9 4 -27 0 -39 -8 -19 -13 -23 -24 -24 -78 -1 -72 -5
-99 -20 -126 -13 -25 -50 -252 -52 -327 -2 -55 -18 -95 -39 -95 -5 0 -30 18
-56 41 -101 84 -77 80 -514 79 l-388 0 -83 96 c-99 113 -221 224 -374 338
-157 118 -295 196 -478 271 -43 18 -78 35 -78 39 0 3 13 48 30 99 45 140 54
207 54 397 0 192 -13 270 -72 445 l-30 90 5 -97 4 -98 -25 0 c-14 0 -25 -5
-25 -11 0 -5 5 -7 11 -3 8 4 9 -4 4 -27 -9 -43 -7 -41 -54 -41 -42 1 -65 -16
-66 -49 0 -10 -4 -18 -10 -16 -5 1 -9 5 -8 10 7 19 -18 3 -51 -33 -20 -22 -36
-37 -36 -34 0 4 -15 -8 -32 -25 -18 -18 -33 -38 -33 -44 0 -7 -5 -12 -12 -12
-21 0 -124 -96 -117 -108 4 -7 4 -9 -1 -5 -13 13 -269 -214 -257 -227 4 -4 0
-5 -8 -3 -10 2 -16 -6 -18 -24 -5 -39 -22 -35 -22 5 0 29 17 48 182 197 101
91 207 188 238 216 125 114 235 208 267 226 19 12 33 28 33 39 0 10 5 19 10
19 6 0 10 4 10 9 0 5 -29 9 -65 8 -48 0 -65 -4 -65 -14 0 -8 -4 -11 -10 -8 -5
3 -7 0 -4 -9 3 -8 -2 -17 -13 -20 -10 -3 -35 -21 -54 -39 -19 -17 -74 -68
-121 -111 -48 -43 -85 -83 -81 -89 3 -6 1 -7 -5 -3 -12 7 -114 -79 -105 -88 4
-3 2 -6 -4 -6 -5 0 -52 -40 -103 -90 -51 -49 -97 -90 -102 -90 -4 0 -8 141 -8
313 l0 313 68 65 c59 57 167 156 340 310 40 36 51 51 45 65 -7 22 -22 34 -41
34 -12 0 -231 -198 -345 -312 -32 -32 -60 -58 -62 -58 -3 0 -5 154 -5 343 0
377 -2 392 -56 353z m197 -1706 c320 -32 553 -101 836 -246 330 -169 623 -430
824 -734 63 -95 179 -323 225 -441 149 -386 179 -865 80 -1274 -74 -304 -196
-571 -363 -798 -151 -204 -423 -452 -623 -569 -151 -88 -190 -104 -239 -102
-30 1 -73 -8 -125 -28 -433 -161 -858 -189 -1286 -87 -121 29 -373 114 -452
153 -41 20 -72 30 -80 24 -10 -6 -8 -8 5 -8 9 0 17 -4 17 -10 0 -6 -10 -5 -25
2 -19 8 -22 14 -12 22 7 6 11 10 9 9 -2 -1 -13 7 -25 18 -11 10 -26 19 -31 19
-6 0 -2 -7 8 -15 36 -27 11 -24 -49 7 -33 17 -73 43 -89 59 -17 16 -35 29 -42
29 -7 0 -14 3 -16 8 -1 4 -28 27 -58 52 -29 24 -51 38 -46 30 4 -8 0 -6 -8 4
-9 11 -16 23 -16 28 0 4 -5 8 -11 8 -5 0 -7 -6 -3 -12 5 -9 3 -9 -9 1 -9 7
-14 17 -11 22 3 5 -2 6 -11 3 -11 -5 -14 -2 -8 12 4 12 3 15 -5 10 -7 -4 -12
-3 -12 2 0 5 -9 12 -21 15 -12 3 -18 10 -14 17 4 6 1 9 -7 8 -7 -2 -12 3 -10
10 1 8 -1 11 -6 8 -5 -3 -35 22 -67 54 -33 33 -55 60 -50 60 5 0 -1 7 -13 16
-12 8 -20 20 -17 25 4 5 1 9 -4 9 -6 0 -11 5 -11 10 0 12 -6 20 -73 91 -59 63
-176 259 -240 402 -90 203 -157 444 -178 643 -15 149 -7 475 16 599 66 374
218 710 452 1000 139 173 338 353 522 474 422 277 915 406 1372 361z m3357
-929 c17 -1 32 -6 32 -11 0 -6 -15 -10 -32 -10 -19 0 -28 -4 -21 -8 8 -5 1
-12 -20 -20 -18 -8 -39 -17 -47 -22 -40 -24 -108 -52 -130 -53 -14 -1 -28 -5
-31 -9 -8 -12 -205 -29 -253 -22 -125 17 -202 45 -192 70 3 9 1 12 -4 9 -6 -3
-10 -2 -10 4 0 5 18 24 40 43 l40 33 298 -2 c163 0 312 -2 330 -2z m-5552
-209 c-117 -186 -218 -503 -257 -812 -18 -136 -15 -412 5 -544 40 -257 125
-523 237 -735 147 -280 336 -518 697 -878 l183 -183 -653 0 c-588 0 -656 2
-677 16 -46 32 -51 66 -51 324 0 220 2 241 18 248 32 13 175 6 222 -12 67 -25
145 -82 166 -121 10 -19 21 -35 25 -35 4 0 12 13 19 29 15 38 -3 73 -69 133
-67 60 -144 90 -253 96 -126 7 -224 -23 -318 -98 -21 -17 -41 -30 -44 -30 -14
0 -5 49 13 72 23 28 117 80 178 99 l43 12 2 1199 3 1200 33 29 32 29 235 0
235 0 -24 -38z m4473 23 c16 -8 34 -28 40 -46 7 -21 11 -140 11 -338 l0 -306
-37 63 c-124 206 -218 346 -350 526 -40 54 -73 102 -73 107 0 5 86 9 190 9
149 0 197 -3 219 -15z m-5542 -881 c-3 -3 -12 -4 -19 -1 -8 3 -5 6 6 6 11 1
17 -2 13 -5z m6756 -1003 c8 -8 12 -56 12 -141 l0 -129 -56 -58 c-55 -57 -109
-133 -109 -153 0 -28 -106 -157 -149 -179 -19 -11 -25 -11 -32 0 -7 11 -9 11
-9 -1 0 -8 -10 -26 -21 -40 l-21 -25 7 35 c13 78 24 179 27 255 l3 80 -32 3
c-28 3 -34 -1 -51 -35 -11 -21 -31 -97 -46 -168 -14 -72 -35 -163 -47 -202
-21 -69 -24 -73 -58 -83 -20 -5 -42 -10 -48 -10 -47 0 -78 280 -52 467 18 135
69 272 115 315 33 29 116 59 204 73 101 17 345 14 363 -4z m-7279 -17 c65 -22
163 -116 206 -195 28 -52 32 -71 32 -132 0 -40 -5 -91 -11 -115 -11 -38 -14
-42 -37 -36 -14 4 -47 17 -72 29 -32 16 -49 19 -52 11 -3 -6 -18 -13 -35 -14
-16 -2 -35 -8 -42 -14 -15 -12 -33 -2 -33 18 0 8 -5 14 -11 14 -6 0 -8 -8 -5
-17 3 -10 -5 -4 -19 12 -42 51 -60 119 -59 230 0 100 10 142 50 203 17 26 26
27 88 6z m482 -45 c31 -12 84 -41 117 -65 34 -24 77 -51 95 -59 l32 -15 0 -88
0 -87 -51 -35 c-27 -19 -77 -55 -111 -79 -118 -84 -170 -111 -215 -111 -50 0
-50 0 -27 101 10 46 15 102 12 162 -3 100 -25 158 -90 240 -16 21 -28 40 -27
41 2 2 22 8 44 14 54 15 154 6 221 -19z m-681 -366 c8 -35 71 -128 102 -153
l26 -20 -119 0 c-66 0 -129 -3 -141 -6 -20 -6 -23 -3 -23 25 0 60 39 123 101
160 43 27 45 26 54 -6z m196 -100 c13 -16 12 -17 -3 -4 -17 13 -22 21 -14 21
2 0 10 -8 17 -17z m737 -185 c-3 -21 -10 -24 -71 -28 -37 -3 -68 -9 -69 -15
-3 -11 -24 -39 -51 -65 -10 -10 -20 -29 -22 -41 -8 -45 -22 -110 -26 -114 -2
-2 -213 -5 -469 -6 l-465 -2 -3 133 c-1 74 0 140 2 147 4 10 120 13 591 13
l586 0 -3 -22z m6906 -227 c88 -11 99 -29 91 -156 -3 -55 -7 -176 -10 -270
-15 -652 -16 -666 -68 -699 -23 -14 -359 -24 -948 -27 l-265 -2 -12 -27 c-10
-21 -22 -29 -50 -34 -61 -10 -628 -7 -656 4 -14 5 -35 24 -46 42 -19 31 -20
51 -20 417 l0 383 108 112 c143 148 199 203 246 237 l39 29 766 -1 c421 0 792
-4 825 -8z m-5004 -185 c0 -3 -4 -8 -10 -11 -5 -3 -10 -1 -10 4 0 6 5 11 10
11 6 0 10 -2 10 -4z m40 -31 c17 -9 33 -15 37 -14 4 0 9 -5 11 -11 3 -9 -71
22 -87 36 -10 9 12 3 39 -11z m-2569 -15 l278 0 12 -42 c17 -66 60 -270 57
-274 -8 -7 -670 -5 -678 2 -8 9 -60 258 -60 289 0 8 9 15 19 15 11 0 23 5 27
11 4 6 19 9 36 5 17 -3 156 -6 309 -6z m2713 -41 c11 -10 -12 -6 -59 10 -28
10 -27 10 10 5 22 -3 44 -10 49 -15z m66 -29 c8 -5 11 -10 5 -10 -5 0 -17 5
-25 10 -8 5 -10 10 -5 10 6 0 17 -5 25 -10z m74 -352 c30 -9 62 -35 125 -100
52 -54 98 -93 120 -100 27 -10 136 -13 421 -13 l385 0 47 27 c25 15 69 56 97
92 86 108 29 101 769 104 l642 3 0 -220 c0 -201 -2 -220 -17 -224 -10 -3 -937
-4 -2060 -3 l-2042 1 -30 47 c-60 95 -170 143 -272 120 -28 -7 -63 -21 -77
-32 -25 -20 -25 -20 -46 -1 -43 41 -111 62 -194 61 -42 -1 -141 2 -218 5 -115
6 -152 4 -196 -9 -72 -21 -132 -77 -151 -143 l-14 -48 -119 1 c-125 1 -199 16
-279 57 -22 12 -44 21 -50 22 -15 0 -93 162 -105 218 -5 26 -10 70 -10 97 l0
50 1616 0 c1250 0 1626 -3 1658 -12z m-2281 -324 c4 -4 -3 -19 -14 -35 -26
-38 -46 -146 -30 -171 6 -10 11 -20 11 -23 0 -3 -52 -5 -115 -5 -133 0 -154 8
-180 72 -25 64 6 129 75 157 27 11 243 15 253 5z m220 -15 c43 -22 58 -41 46
-56 -15 -17 -4 -98 16 -129 15 -23 14 -24 -28 -35 -40 -11 -126 -7 -148 6 -5
4 -21 25 -36 47 -23 37 -24 45 -14 80 8 26 25 48 53 68 44 32 76 37 111 19z
m377 -39 c22 -11 44 -29 50 -40 10 -19 8 -20 -95 -20 -105 0 -106 0 -116 26
-5 15 -8 28 -7 29 40 30 114 33 168 5z m-217 -72 c34 -22 64 -43 66 -45 3 -2
0 -8 -6 -14 -7 -7 -29 5 -71 36 -54 41 -75 65 -56 65 3 0 33 -19 67 -42z"/>
<path d="M4767 6459 c-90 -9 -294 -57 -412 -96 -533 -175 -987 -615 -1192
-1153 -30 -79 -78 -278 -92 -380 -62 -459 29 -863 285 -1255 52 -80 102 -138
88 -102 -3 9 -10 17 -16 17 -5 0 -7 4 -4 9 3 5 -1 25 -9 45 -27 63 -73 259
-85 356 -6 52 -13 106 -16 120 -12 70 -29 408 -28 580 0 179 2 204 27 305 34
134 65 221 113 317 119 238 227 377 436 561 221 195 441 307 738 376 320 75
684 41 999 -93 46 -19 88 -33 92 -30 18 10 8 25 -13 22 -13 -2 -24 2 -25 7 -2
6 7 10 20 10 12 0 25 -4 29 -10 5 -6 15 -5 28 3 11 7 25 10 30 7 4 -3 11 1 13
7 4 10 8 9 16 -2 10 -13 12 -13 21 0 8 12 13 13 30 2 15 -9 26 -10 40 -2 11 6
20 13 20 16 0 3 -5 2 -12 -2 -7 -4 -8 -3 -4 4 23 37 349 -207 511 -383 44 -48
84 -94 89 -103 5 -10 19 -28 31 -42 33 -37 104 -144 142 -214 38 -71 42 -69
12 6 -85 217 -307 500 -537 685 -384 309 -891 462 -1365 412z"/>
<path d="M6257 5383 c-3 -4 -8 -22 -11 -39 -10 -43 -1092 -1115 -1168 -1156
-41 -23 -63 -28 -117 -28 -88 0 -114 17 -306 201 -197 189 -124 107 131 -148
113 -113 220 -211 242 -222 54 -27 95 -26 161 4 56 27 43 14 845 808 262 259
317 304 308 253 -2 -10 0 -25 4 -35 4 -9 8 -23 9 -31 4 -26 16 -84 26 -129 15
-69 27 -349 19 -443 -23 -247 -112 -500 -238 -678 -66 -92 -223 -251 -322
-326 -91 -68 -325 -190 -430 -223 -123 -39 -225 -61 -355 -77 -149 -19 -179
-20 -255 -14 -39 4 -54 2 -53 -7 3 -14 -100 -6 -105 9 -2 4 -16 8 -30 8 -41 0
-72 11 -65 23 4 6 1 7 -7 2 -10 -6 -10 -11 3 -20 23 -17 21 -35 -3 -35 -12 0
-20 7 -21 18 0 10 -3 12 -6 5 -2 -7 -11 -13 -19 -13 -9 0 -14 -11 -14 -29 0
-25 -3 -28 -21 -24 -11 3 -23 12 -26 19 -8 21 -33 17 -33 -5 0 -15 19 -25 98
-50 153 -48 219 -60 367 -69 243 -13 427 11 639 85 429 149 787 464 959 843
152 335 193 719 113 1046 -27 112 -85 287 -85 263 -1 -11 -14 -19 -43 -23 -24
-4 -43 -6 -44 -4 0 2 -8 -3 -17 -11 -21 -17 -22 -3 -2 23 36 48 2 169 -57 208
-31 21 -65 30 -71 21z m107 -289 c3 -8 2 -12 -4 -9 -6 3 -10 10 -10 16 0 14 7
11 14 -7z"/>
<path d="M4330 3060 c18 -12 30 -13 30 -2 0 4 -10 9 -22 9 -18 2 -20 0 -8 -7z"/>
<path d="M3833 2705 c0 -8 4 -12 9 -9 5 3 6 10 3 15 -9 13 -12 11 -12 -6z"/>
<path d="M8278 5713 c7 -3 16 -2 19 1 4 3 -2 6 -13 5 -11 0 -14 -3 -6 -6z"/>
<path d="M2950 2932 c0 -6 4 -12 9 -14 21 -8 21 -46 0 -72 -28 -35 -77 -33
-96 4 l-12 24 -10 -27 c-13 -33 6 -79 38 -97 50 -26 113 1 127 56 7 28 -19
106 -42 124 -8 8 -14 8 -14 2z"/>
<path d="M6053 8443 c-7 -2 -15 -20 -19 -38 -8 -46 -44 -82 -88 -91 -46 -8
-67 -41 -40 -61 10 -7 25 -13 33 -13 32 -1 66 -29 86 -71 28 -60 51 -58 84 6
22 41 33 53 68 65 69 23 68 50 -3 80 -33 15 -48 28 -60 57 -31 73 -35 77 -61
66z"/>
<path d="M3810 8396 c-6 -8 -21 -34 -33 -58 -16 -31 -34 -49 -66 -64 -75 -36
-80 -75 -11 -95 43 -13 90 -59 90 -88 0 -22 19 -41 42 -41 12 0 25 15 37 43
20 47 62 87 92 87 22 0 41 32 33 55 -4 9 -24 23 -45 32 -43 17 -72 51 -83 98
-11 43 -34 56 -56 31z"/>
<path d="M6675 8166 c-52 -24 -96 -71 -121 -131 l-14 -35 -78 0 c-95 0 -156
-19 -212 -67 -83 -71 -128 -185 -116 -296 11 -103 14 -105 103 -41 111 79 124
86 92 43 -109 -144 -150 -224 -173 -341 -50 -246 18 -477 192 -660 198 -208
529 -267 797 -143 194 90 333 262 385 476 24 103 26 265 5 359 -22 91 -86 216
-146 283 -28 31 -48 57 -45 57 10 0 81 -47 133 -86 45 -34 48 -35 61 -17 24
32 11 190 -22 257 -53 108 -146 167 -274 174 l-83 5 -20 39 c-59 116 -125 148
-303 148 -95 0 -118 -4 -161 -24z m267 -67 c43 -9 62 -20 101 -61 27 -27 47
-53 45 -58 -2 -5 -19 -19 -38 -32 -48 -33 -48 -50 1 -77 56 -32 38 -46 -35
-27 -98 26 -192 29 -300 12 -54 -9 -101 -15 -103 -13 -2 2 12 15 32 28 48 33
50 45 10 76 -19 16 -35 32 -35 36 0 17 66 99 90 113 31 16 159 18 232 3z
m-406 -190 c28 -10 27 -11 -55 -57 -45 -25 -123 -77 -173 -115 l-91 -68 6 50
c10 88 62 160 137 190 34 13 142 14 176 0z m782 -5 c49 -20 89 -59 117 -114
24 -49 40 -105 28 -97 -244 151 -319 200 -321 207 -8 22 124 26 176 4z m-329
-134 c96 -23 171 -60 254 -125 70 -55 110 -110 133 -178 9 -29 20 -54 24 -57
14 -10 22 -50 10 -50 -8 0 -10 -25 -5 -87 10 -134 -19 -268 -77 -358 -57 -88
-79 -116 -123 -158 -96 -91 -215 -131 -386 -132 l-115 0 -2 -25 c-4 -47 -22
-53 -84 -30 -133 49 -270 175 -334 304 -118 242 -67 542 127 735 158 157 359
213 578 161z"/>
<path d="M2865 7923 c-109 -23 -202 -67 -301 -141 l-92 -69 -81 -6 c-67 -4
-95 -12 -154 -41 -40 -19 -84 -45 -99 -58 l-28 -22 -67 24 c-163 58 -311 2
-383 -144 -31 -61 -35 -65 -92 -87 -111 -41 -169 -126 -154 -223 15 -90 80
-141 199 -156 34 -4 186 -8 337 -9 l275 -1 16 -57 c58 -209 185 -387 353 -498
213 -139 529 -165 772 -64 284 118 456 364 480 687 20 279 -124 578 -358 739
-102 71 -147 91 -256 119 -111 28 -256 31 -367 7z m296 -77 c145 -26 285 -103
390 -213 150 -158 237 -432 184 -582 -8 -23 -12 -48 -9 -56 4 -8 1 -15 -5 -15
-6 0 -11 -11 -11 -25 0 -13 -9 -41 -21 -62 -11 -20 -30 -59 -40 -86 -33 -83
-176 -227 -280 -282 -70 -36 -239 -85 -296 -85 -23 0 -33 -5 -33 -15 0 -44
-248 9 -379 82 -103 57 -271 240 -271 294 0 33 321 119 445 119 24 0 66 -11
98 -25 94 -43 189 -34 279 27 53 36 57 47 30 72 -15 13 -19 32 -20 99 0 51 -6
96 -16 119 -41 96 -135 153 -238 146 -32 -2 -60 -7 -63 -10 -3 -2 0 -19 6 -36
9 -27 16 -32 42 -32 83 -1 148 -35 168 -89 12 -30 -6 -87 -31 -101 -12 -6
-293 -10 -773 -10 -747 0 -755 0 -781 21 -47 37 -51 114 -9 162 25 27 75 47
121 47 48 0 68 20 75 77 6 49 34 92 84 131 32 24 45 27 113 27 55 0 83 -5 103
-18 l27 -17 -21 -40 c-24 -46 -19 -60 21 -60 24 0 37 10 70 55 77 104 174 153
325 162 l90 6 37 42 c71 81 197 144 336 169 99 18 159 19 253 2z"/>
<path d="M5690 7825 c0 -8 4 -15 10 -15 5 0 7 7 4 15 -4 8 -8 15 -10 15 -2 0
-4 -7 -4 -15z"/>
<path d="M5722 7670 c0 -19 2 -27 5 -17 2 9 2 25 0 35 -3 9 -5 1 -5 -18z"/>
<path d="M4625 7260 c3 -5 11 -10 16 -10 6 0 7 5 4 10 -3 6 -11 10 -16 10 -6
0 -7 -4 -4 -10z"/>
<path d="M4760 7140 c0 -5 9 -14 20 -20 11 -6 20 -9 20 -8 0 2 -9 11 -20 21
-11 9 -20 13 -20 7z"/>
<path d="M4852 7077 c15 -14 25 -27 22 -29 -2 -3 3 -5 11 -5 21 0 20 1 -22 32
-35 24 -36 25 -11 2z"/>
<path d="M7672 7088 c-17 -17 -15 -36 7 -47 14 -8 22 -7 31 4 26 31 -9 72 -38
43z"/>
<path d="M7814 7085 c-9 -23 3 -45 25 -45 23 0 35 28 20 46 -15 18 -38 18 -45
-1z"/>
<path d="M1935 6568 c-2 -7 -6 -29 -9 -48 -10 -61 -39 -96 -98 -118 -42 -16
-54 -25 -56 -44 -3 -22 4 -28 53 -48 63 -26 81 -46 98 -117 11 -44 15 -48 41
-48 26 0 30 5 41 47 16 62 37 93 77 107 80 30 79 30 76 57 -2 21 -13 30 -47
44 -55 21 -87 57 -101 113 -17 66 -18 67 -45 67 -14 0 -27 -6 -30 -12z"/>
<path d="M8583 5015 c-130 -28 -244 -112 -295 -217 -51 -103 -62 -255 -20
-277 24 -12 141 14 231 51 141 59 251 195 271 337 9 68 2 104 -25 115 -26 9
-94 6 -162 -9z m107 -87 c0 -42 -56 -142 -104 -186 -26 -24 -71 -55 -100 -68
-51 -23 -147 -47 -155 -38 -11 11 24 117 52 157 68 96 133 130 300 156 4 0 7
-9 7 -21z"/>
<path d="M1371 4384 c-21 -15 -23 -22 -18 -78 15 -181 131 -307 335 -364 77
-22 98 -21 106 6 57 204 -83 398 -320 441 -74 14 -75 14 -103 -5z m175 -104
c45 -19 118 -81 136 -114 7 -12 17 -45 24 -73 12 -53 12 -53 -12 -53 -33 0
-132 51 -168 86 -35 35 -90 148 -82 169 6 18 36 13 102 -15z"/>
</g>
</svg>
